<mxfile host="app.diagrams.net" agent="Mozilla/5.0 (Windows NT 10.0; Win64; x64; rv:134.0) Gecko/20100101 Firefox/134.0" version="24.9.2">
  <diagram id="sUOf4Gd8ax7YT49pBz8j" name="Page-1">
    <mxGraphModel dx="2901" dy="1192" grid="1" gridSize="10" guides="1" tooltips="1" connect="1" arrows="1" fold="1" page="1" pageScale="1" pageWidth="827" pageHeight="1169" math="0" shadow="0">
      <root>
        <mxCell id="0" />
        <mxCell id="1" parent="0" />
        <mxCell id="Msetk58btwN6IJ3oZkrs-41" value="" style="rounded=1;whiteSpace=wrap;html=1;" parent="1" vertex="1">
          <mxGeometry x="-375.75" y="24.299999999999955" width="346.25" height="70" as="geometry" />
        </mxCell>
        <mxCell id="Msetk58btwN6IJ3oZkrs-6" value="" style="rounded=1;whiteSpace=wrap;html=1;" parent="1" vertex="1">
          <mxGeometry x="-375.75" y="274.29999999999995" width="360" height="90" as="geometry" />
        </mxCell>
        <mxCell id="-R5uA8-KF-rL2PW7XKh3-36" value="Angular JS (Organize)" style="verticalLabelPosition=bottom;sketch=0;aspect=fixed;html=1;verticalAlign=top;strokeColor=none;align=center;outlineConnect=0;shape=mxgraph.citrix.browser;" parent="1" vertex="1">
          <mxGeometry x="-139.25" y="34.299999999999955" width="19.65" height="30" as="geometry" />
        </mxCell>
        <mxCell id="Msetk58btwN6IJ3oZkrs-1" value="OpenResty 1.19.9" style="sketch=0;aspect=fixed;html=1;points=[];align=center;image;fontSize=12;image=img/lib/mscae/Docker.svg;" parent="1" vertex="1">
          <mxGeometry x="-342.5" y="289.29999999999995" width="50" height="41" as="geometry" />
        </mxCell>
        <mxCell id="Msetk58btwN6IJ3oZkrs-2" value="Keycloak 15.0.1" style="sketch=0;aspect=fixed;html=1;points=[];align=center;image;fontSize=12;image=img/lib/mscae/Docker.svg;" parent="1" vertex="1">
          <mxGeometry x="-232.5" y="289.29999999999995" width="50" height="41" as="geometry" />
        </mxCell>
        <mxCell id="Msetk58btwN6IJ3oZkrs-3" value="Services (.NET SDK 6.0)" style="sketch=0;aspect=fixed;html=1;points=[];align=center;image;fontSize=12;image=img/lib/mscae/Docker.svg;" parent="1" vertex="1">
          <mxGeometry x="-112.5" y="289.29999999999995" width="50" height="41" as="geometry" />
        </mxCell>
        <mxCell id="Msetk58btwN6IJ3oZkrs-27" value="http" style="edgeStyle=orthogonalEdgeStyle;rounded=0;orthogonalLoop=1;jettySize=auto;html=1;startArrow=none;startFill=0;" parent="1" target="Msetk58btwN6IJ3oZkrs-24" edge="1">
          <mxGeometry x="0.5763" relative="1" as="geometry">
            <mxPoint x="-425.75" y="394.29999999999995" as="sourcePoint" />
            <Array as="points">
              <mxPoint x="-423.75" y="394.29999999999995" />
              <mxPoint x="-423.75" y="434.29999999999995" />
              <mxPoint x="-319.75" y="434.29999999999995" />
            </Array>
            <mxPoint as="offset" />
          </mxGeometry>
        </mxCell>
        <mxCell id="Msetk58btwN6IJ3oZkrs-28" value="http" style="edgeStyle=orthogonalEdgeStyle;rounded=0;orthogonalLoop=1;jettySize=auto;html=1;startArrow=none;startFill=0;" parent="1" target="Msetk58btwN6IJ3oZkrs-23" edge="1">
          <mxGeometry x="0.5434" relative="1" as="geometry">
            <mxPoint x="-423.75" y="404.29999999999995" as="sourcePoint" />
            <Array as="points">
              <mxPoint x="-423.75" y="434.29999999999995" />
              <mxPoint x="-522.75" y="434.29999999999995" />
            </Array>
            <mxPoint as="offset" />
          </mxGeometry>
        </mxCell>
        <mxCell id="Msetk58btwN6IJ3oZkrs-7" value="Gateway" style="verticalLabelPosition=bottom;sketch=0;aspect=fixed;html=1;verticalAlign=top;strokeColor=none;align=center;outlineConnect=0;shape=mxgraph.citrix.web_server;" parent="1" vertex="1">
          <mxGeometry x="-462.25" y="274.29999999999995" width="76.5" height="90" as="geometry" />
        </mxCell>
        <mxCell id="Msetk58btwN6IJ3oZkrs-17" style="edgeStyle=orthogonalEdgeStyle;rounded=0;orthogonalLoop=1;jettySize=auto;html=1;" parent="1" source="Msetk58btwN6IJ3oZkrs-8" target="Msetk58btwN6IJ3oZkrs-7" edge="1">
          <mxGeometry relative="1" as="geometry">
            <Array as="points">
              <mxPoint x="-405.75" y="204.29999999999995" />
              <mxPoint x="-405.75" y="204.29999999999995" />
            </Array>
          </mxGeometry>
        </mxCell>
        <mxCell id="Msetk58btwN6IJ3oZkrs-19" value="https" style="edgeLabel;html=1;align=center;verticalAlign=middle;resizable=0;points=[];" parent="Msetk58btwN6IJ3oZkrs-17" vertex="1" connectable="0">
          <mxGeometry x="0.1204" y="-1" relative="1" as="geometry">
            <mxPoint x="1" y="-28" as="offset" />
          </mxGeometry>
        </mxCell>
        <mxCell id="Msetk58btwN6IJ3oZkrs-21" style="edgeStyle=orthogonalEdgeStyle;rounded=0;orthogonalLoop=1;jettySize=auto;html=1;startArrow=classic;startFill=1;" parent="1" source="Msetk58btwN6IJ3oZkrs-8" target="Msetk58btwN6IJ3oZkrs-7" edge="1">
          <mxGeometry relative="1" as="geometry">
            <mxPoint x="-585.75" y="334.29999999999995" as="targetPoint" />
            <Array as="points">
              <mxPoint x="-455.75" y="214.29999999999995" />
              <mxPoint x="-455.75" y="214.29999999999995" />
            </Array>
          </mxGeometry>
        </mxCell>
        <mxCell id="Msetk58btwN6IJ3oZkrs-22" value="websocket" style="edgeLabel;html=1;align=center;verticalAlign=middle;resizable=0;points=[];" parent="Msetk58btwN6IJ3oZkrs-21" vertex="1" connectable="0">
          <mxGeometry x="-0.1527" y="5" relative="1" as="geometry">
            <mxPoint x="-11" y="-3" as="offset" />
          </mxGeometry>
        </mxCell>
        <mxCell id="Msetk58btwN6IJ3oZkrs-8" value="" style="verticalLabelPosition=bottom;sketch=0;aspect=fixed;html=1;verticalAlign=top;strokeColor=none;align=center;outlineConnect=0;shape=mxgraph.citrix.laptop_2;" parent="1" vertex="1">
          <mxGeometry x="-480.75" y="20" width="91.98" height="68.59" as="geometry" />
        </mxCell>
        <mxCell id="Msetk58btwN6IJ3oZkrs-18" value="JSF / Primefaces (AofWeb)" style="verticalLabelPosition=bottom;sketch=0;aspect=fixed;html=1;verticalAlign=top;strokeColor=none;align=center;outlineConnect=0;shape=mxgraph.citrix.browser;" parent="1" vertex="1">
          <mxGeometry x="-301" y="34.299999999999955" width="19.65" height="30" as="geometry" />
        </mxCell>
        <mxCell id="Msetk58btwN6IJ3oZkrs-31" value="JDBC" style="edgeStyle=orthogonalEdgeStyle;rounded=0;orthogonalLoop=1;jettySize=auto;html=1;startArrow=none;startFill=0;" parent="1" source="Msetk58btwN6IJ3oZkrs-23" target="Msetk58btwN6IJ3oZkrs-30" edge="1">
          <mxGeometry x="-0.0736" relative="1" as="geometry">
            <Array as="points">
              <mxPoint x="-525.75" y="729.3" />
            </Array>
            <mxPoint as="offset" />
          </mxGeometry>
        </mxCell>
        <mxCell id="Msetk58btwN6IJ3oZkrs-36" value="&lt;div&gt;http&lt;/div&gt;" style="edgeStyle=orthogonalEdgeStyle;rounded=0;orthogonalLoop=1;jettySize=auto;html=1;startArrow=none;startFill=0;" parent="1" source="Msetk58btwN6IJ3oZkrs-23" target="Msetk58btwN6IJ3oZkrs-35" edge="1">
          <mxGeometry relative="1" as="geometry">
            <Array as="points">
              <mxPoint x="-635.75" y="567.3" />
              <mxPoint x="-635.75" y="478.29999999999995" />
            </Array>
          </mxGeometry>
        </mxCell>
        <mxCell id="Msetk58btwN6IJ3oZkrs-37" value="SMTP" style="edgeStyle=orthogonalEdgeStyle;rounded=0;orthogonalLoop=1;jettySize=auto;html=1;startArrow=none;startFill=0;" parent="1" source="Msetk58btwN6IJ3oZkrs-23" target="Msetk58btwN6IJ3oZkrs-34" edge="1">
          <mxGeometry relative="1" as="geometry">
            <Array as="points">
              <mxPoint x="-635.75" y="567.3" />
              <mxPoint x="-635.75" y="655.3" />
            </Array>
          </mxGeometry>
        </mxCell>
        <mxCell id="Msetk58btwN6IJ3oZkrs-23" value="&lt;div&gt;AofWeb (backend) : Wildlfy 23.0.2&lt;/div&gt;" style="verticalLabelPosition=bottom;sketch=0;aspect=fixed;html=1;verticalAlign=top;strokeColor=none;align=center;outlineConnect=0;shape=mxgraph.citrix.tower_server;" parent="1" vertex="1">
          <mxGeometry x="-545.75" y="524.3" width="65" height="85" as="geometry" />
        </mxCell>
        <mxCell id="Msetk58btwN6IJ3oZkrs-32" style="edgeStyle=orthogonalEdgeStyle;rounded=0;orthogonalLoop=1;jettySize=auto;html=1;startArrow=none;startFill=0;" parent="1" source="Msetk58btwN6IJ3oZkrs-24" target="Msetk58btwN6IJ3oZkrs-30" edge="1">
          <mxGeometry relative="1" as="geometry">
            <Array as="points">
              <mxPoint x="-315.75" y="729.3" />
            </Array>
          </mxGeometry>
        </mxCell>
        <mxCell id="Msetk58btwN6IJ3oZkrs-33" value="&lt;div&gt;Hibernate&lt;/div&gt;&lt;div&gt;&lt;br&gt;&lt;/div&gt;" style="edgeLabel;html=1;align=center;verticalAlign=middle;resizable=0;points=[];" parent="Msetk58btwN6IJ3oZkrs-32" vertex="1" connectable="0">
          <mxGeometry x="-0.0836" y="1" relative="1" as="geometry">
            <mxPoint as="offset" />
          </mxGeometry>
        </mxCell>
        <mxCell id="Msetk58btwN6IJ3oZkrs-24" value="Organize (backend) : Wildlfy 23.0.2" style="verticalLabelPosition=bottom;sketch=0;aspect=fixed;html=1;verticalAlign=top;strokeColor=none;align=center;outlineConnect=0;shape=mxgraph.citrix.tower_server;" parent="1" vertex="1">
          <mxGeometry x="-352.5" y="524.3" width="65" height="85" as="geometry" />
        </mxCell>
        <mxCell id="Msetk58btwN6IJ3oZkrs-30" value="Database : Postgresql 12" style="verticalLabelPosition=bottom;sketch=0;aspect=fixed;html=1;verticalAlign=top;strokeColor=none;align=center;outlineConnect=0;shape=mxgraph.citrix.database_server;" parent="1" vertex="1">
          <mxGeometry x="-462.25" y="684.3" width="80" height="90" as="geometry" />
        </mxCell>
        <mxCell id="Msetk58btwN6IJ3oZkrs-34" value="Serveur de mail" style="verticalLabelPosition=bottom;sketch=0;aspect=fixed;html=1;verticalAlign=top;strokeColor=none;align=center;outlineConnect=0;shape=mxgraph.citrix.smtp_server;" parent="1" vertex="1">
          <mxGeometry x="-775.75" y="609.3" width="76" height="92" as="geometry" />
        </mxCell>
        <mxCell id="Msetk58btwN6IJ3oZkrs-35" value="Solr 7.4.0" style="verticalLabelPosition=bottom;sketch=0;aspect=fixed;html=1;verticalAlign=top;strokeColor=none;align=center;outlineConnect=0;shape=mxgraph.citrix.edgesight_server;" parent="1" vertex="1">
          <mxGeometry x="-775.75" y="433.29999999999995" width="76.5" height="90" as="geometry" />
        </mxCell>
        <mxCell id="Msetk58btwN6IJ3oZkrs-38" value="" style="shape=image;html=1;verticalAlign=top;verticalLabelPosition=bottom;labelBackgroundColor=#ffffff;imageAspect=0;aspect=fixed;image=https://cdn1.iconfinder.com/data/icons/logotypes/32/chrome-128.png" parent="1" vertex="1">
          <mxGeometry x="-430.75" y="39.299999999999955" width="20" height="20" as="geometry" />
        </mxCell>
        <mxCell id="Msetk58btwN6IJ3oZkrs-44" value="SOAP or REST (https)" style="edgeStyle=orthogonalEdgeStyle;rounded=0;orthogonalLoop=1;jettySize=auto;html=1;startArrow=none;startFill=0;" parent="1" source="Msetk58btwN6IJ3oZkrs-43" target="Msetk58btwN6IJ3oZkrs-7" edge="1">
          <mxGeometry relative="1" as="geometry" />
        </mxCell>
        <mxCell id="Msetk58btwN6IJ3oZkrs-43" value="3rd party clients" style="verticalLabelPosition=bottom;sketch=0;aspect=fixed;html=1;verticalAlign=top;strokeColor=none;align=center;outlineConnect=0;shape=mxgraph.citrix.cloud;" parent="1" vertex="1">
          <mxGeometry x="-790" y="285.03999999999996" width="105" height="68.53" as="geometry" />
        </mxCell>
      </root>
    </mxGraphModel>
  </diagram>
</mxfile>
